<?xml version="1.0" standalone="no"?>
<!DOCTYPE svg PUBLIC "-//W3C//DTD SVG 20010904//EN"
 "http://www.w3.org/TR/2001/REC-SVG-20010904/DTD/svg10.dtd">
<svg version="1.0" xmlns="http://www.w3.org/2000/svg"
 width="256.000000pt" height="256.000000pt" viewBox="0 0 256.000000 256.000000"
 preserveAspectRatio="xMidYMid meet">
<metadata>
Created by potrace 1.10, written by Peter Selinger 2001-2011
</metadata>
<g transform="translate(0.000000,256.000000) scale(0.100000,-0.100000)"
fill="#000000" stroke="none">
<path d="M1185 2553 c-211 -12 -435 -89 -621 -213 -100 -67 -276 -242 -341
-340 -97 -145 -167 -314 -199 -478 -20 -103 -20 -381 0 -484 48 -251 167 -472
355 -659 154 -154 299 -245 494 -311 136 -45 221 -57 412 -57 187 -1 286 15
425 64 425 154 731 509 825 960 23 110 24 369 1 488 -72 379 -323 714 -664
890 -106 55 -267 110 -367 126 -75 11 -239 19 -320 14z m311 -38 c516 -90 929
-503 1019 -1019 19 -114 19 -318 0 -432 -90 -515 -504 -929 -1019 -1019 -114
-19 -318 -19 -432 0 -509 89 -915 490 -1013 1000 -40 203 -24 439 43 638 142
423 523 752 962 831 108 19 330 20 440 1z"/>
<path d="M1251 2451 c-12 -8 -12 -13 -3 -24 10 -11 9 -17 -3 -27 -27 -22 0
-39 61 -37 30 1 54 5 54 9 0 4 -4 8 -10 8 -5 0 -9 6 -7 13 1 7 -7 11 -20 9
-25 -4 -30 7 -12 25 25 25 -26 45 -60 24z m39 -11 c0 -5 -5 -10 -11 -10 -5 0
-7 5 -4 10 3 6 8 10 11 10 2 0 4 -4 4 -10z m5 -50 c3 -5 -3 -10 -14 -10 -12 0
-21 5 -21 10 0 6 6 10 14 10 8 0 18 -4 21 -10z"/>
<path d="M977 2423 c-49 -20 -61 -58 -26 -85 30 -25 86 -17 117 18 28 32 21
45 -21 33 -17 -5 -33 -9 -34 -9 -2 0 -3 -5 -3 -11 0 -6 9 -8 20 -4 11 3 20 2
20 -4 0 -15 -57 -23 -79 -11 -12 6 -21 14 -21 18 1 27 54 54 89 45 24 -6 29
12 5 21 -21 8 -23 8 -67 -11z"/>
<path d="M1526 2404 c-22 -21 -20 -37 8 -63 26 -25 106 -41 106 -22 0 6 -15
11 -33 11 -38 0 -73 30 -64 55 8 20 70 20 87 0 7 -8 17 -12 23 -8 6 4 1 13
-12 25 -29 22 -94 24 -115 2z"/>
<path d="M767 2354 c-4 -4 3 -20 15 -37 l22 -30 -25 7 c-49 14 -87 18 -91 10
-3 -5 6 -28 21 -51 19 -30 30 -40 40 -33 11 6 10 13 -8 36 -24 30 -22 40 6 26
30 -16 67 -22 81 -13 10 6 7 17 -14 49 -28 42 -35 48 -47 36z"/>
<path d="M1753 2329 c-33 -33 9 -96 69 -106 66 -10 89 32 45 82 -26 31 -94 45
-114 24z m85 -25 c25 -18 29 -52 6 -61 -19 -7 -63 12 -70 32 -16 41 22 58 64
29z"/>
<path d="M1135 2284 c-75 -12 -197 -50 -273 -85 -225 -104 -392 -268 -496
-490 -74 -156 -90 -236 -90 -429 0 -139 4 -178 23 -250 91 -340 346 -609 676
-713 359 -113 754 -17 1019 249 124 124 222 294 268 464 31 114 33 376 4 485
-80 304 -269 537 -541 670 -153 75 -246 97 -420 101 -77 1 -153 0 -170 -2z
m234 -24 c448 -46 791 -359 882 -805 7 -33 12 -112 12 -175 0 -121 -10 -192
-45 -300 -119 -372 -456 -643 -842 -678 -546 -49 -1019 340 -1075 885 -23 218
38 460 162 643 160 237 435 402 717 429 47 5 86 9 86 10 1 0 47 -4 103 -9z"/>
<path d="M1225 1825 c0 -135 3 -184 11 -181 7 3 48 27 93 55 l81 51 0 -430 0
-430 40 0 40 0 0 483 0 482 -129 78 c-71 42 -131 77 -133 77 -1 0 -3 -83 -3
-185z m138 80 l97 -59 0 -453 c0 -249 1 -456 2 -460 1 -5 -6 -9 -15 -11 -16
-3 -17 28 -17 411 0 473 2 460 -72 409 -24 -16 -58 -36 -75 -45 l-33 -15 0
145 c0 79 4 143 8 141 4 -1 52 -30 105 -63z"/>
<path d="M1068 1609 l-98 -60 0 -100 0 -100 30 21 c28 20 30 26 30 85 l0 64
66 40 c61 36 67 42 69 75 1 20 1 36 1 35 -1 0 -45 -28 -98 -60z m52 -3 c0 -3
-25 -21 -55 -41 l-54 -36 -4 -62 -3 -62 -2 65 c-2 64 -2 65 35 90 30 21 70 45
81 49 1 1 2 -1 2 -3z"/>
<path d="M1218 1571 l-127 -76 0 -342 -1 -343 -30 0 -30 0 0 260 0 259 -57
-36 -58 -35 3 -224 3 -224 -130 0 -131 0 0 -40 0 -40 620 0 620 0 0 40 0 40
-130 0 -130 0 2 333 3 332 -50 32 -50 32 -3 -365 -2 -364 -98 0 -97 0 3 267
c1 148 1 336 0 419 l-3 150 -127 -75z m108 -362 c0 -211 4 -392 8 -401 7 -15
22 -18 105 -18 62 0 101 4 109 12 9 9 12 100 12 349 0 186 4 340 8 343 5 3 18
-2 30 -10 22 -15 22 -19 22 -337 1 -249 4 -326 14 -339 10 -14 33 -18 127 -20
93 -2 114 -6 114 -18 0 -13 -73 -15 -595 -15 -522 0 -595 2 -595 15 0 12 21
16 114 18 64 1 121 8 128 14 10 8 13 61 13 228 l0 218 35 21 35 20 0 -237 c0
-172 3 -241 12 -250 16 -16 63 -15 77 1 7 9 12 121 13 347 l3 333 95 59 c52
32 100 56 105 55 6 -2 10 -141 11 -388z"/>
<path d="M951 1184 c0 -11 3 -14 6 -6 3 7 2 16 -1 19 -3 4 -6 -2 -5 -13z"/>
<path d="M951 1144 c0 -11 3 -14 6 -6 3 7 2 16 -1 19 -3 4 -6 -2 -5 -13z"/>
<path d="M954 1035 c0 -49 1 -71 3 -48 2 23 2 64 0 90 -2 26 -3 8 -3 -42z"/>
<path d="M952 895 c0 -16 2 -22 5 -12 2 9 2 23 0 30 -3 6 -5 -1 -5 -18z"/>
<path d="M1983 2171 c-23 -27 -29 -41 -21 -49 7 -7 17 -3 34 16 l23 27 1 -46
c0 -68 18 -76 58 -28 18 21 30 44 27 49 -10 16 -21 12 -35 -15 -19 -36 -30
-31 -30 14 0 42 -8 72 -19 70 -3 0 -20 -18 -38 -38z"/>
<path d="M527 2193 c-8 -13 59 -86 72 -79 7 5 0 20 -21 47 -31 39 -43 46 -51
32z"/>
<path d="M379 2042 l-41 -37 45 -32 45 -33 26 38 c32 46 33 66 4 86 -31 22
-33 21 -79 -22z m68 -8 c3 -8 0 -27 -6 -41 l-12 -26 -27 27 c-26 26 -27 27 -8
42 26 18 45 18 53 -2z"/>
<path d="M2195 1989 c-4 -6 -4 -26 -1 -45 8 -40 -10 -47 -24 -9 -5 14 -14 25
-20 25 -13 0 -13 -6 2 -33 30 -58 73 -55 65 4 -6 44 3 50 26 17 13 -19 16 -20
16 -5 1 18 -32 57 -48 57 -6 0 -13 -5 -16 -11z"/>
<path d="M231 1836 c-9 -11 -5 -25 20 -65 22 -36 35 -48 40 -39 5 7 4 17 0 21
-12 12 19 65 41 71 10 2 18 9 18 15 0 17 -105 14 -119 -3z m59 -25 c0 -18 -18
-21 -30 -6 -10 13 -9 15 9 15 11 0 21 -4 21 -9z"/>
<path d="M2330 1791 c0 -13 -11 -24 -35 -32 -19 -7 -35 -16 -35 -20 0 -17 21
-19 51 -4 22 12 34 14 42 6 22 -22 25 -10 9 29 -18 43 -32 52 -32 21z"/>
<path d="M155 1630 c-22 -42 -20 -46 32 -64 56 -19 53 -19 53 -2 0 7 -10 17
-22 20 -22 6 -22 7 8 20 33 15 53 36 34 36 -6 0 -20 -4 -30 -10 -14 -7 -19 -5
-23 10 -8 29 -34 24 -52 -10z m35 -10 c0 -11 -7 -20 -15 -20 -13 0 -14 4 -5
20 6 11 13 20 15 20 3 0 5 -9 5 -20z"/>
<path d="M2371 1584 c-51 -16 -55 -19 -46 -33 4 -8 12 -8 26 -1 23 13 24 6 2
-31 -20 -34 -9 -52 13 -20 13 17 19 20 30 10 11 -9 18 -9 29 1 18 15 18 26 2
61 -12 25 -13 25 -56 13z m45 -52 c-10 -10 -29 15 -21 28 6 9 10 8 17 -4 6
-10 7 -20 4 -24z"/>
<path d="M100 1355 c0 -25 5 -45 10 -45 6 0 10 7 10 16 0 13 8 15 40 12 37 -3
44 0 38 19 -2 4 -20 6 -40 6 -31 0 -38 3 -38 18 0 11 -4 19 -10 19 -5 0 -10
-20 -10 -45z"/>
<path d="M2359 1333 c-7 -19 -7 -35 0 -50 9 -19 18 -23 56 -23 34 0 45 4 45
16 0 12 -9 15 -35 13 -36 -4 -62 12 -51 30 4 6 25 11 47 11 28 0 39 4 39 15 0
11 -12 15 -45 15 -40 0 -47 -3 -56 -27z"/>
<path d="M2377 1119 c-35 -20 -67 -138 -34 -126 7 2 11 16 9 31 -4 32 22 76
43 76 28 0 39 -43 21 -78 -21 -40 -21 -59 -1 -42 35 29 37 120 2 142 -15 10
-18 10 -40 -3z"/>
<path d="M128 1035 c-7 -8 15 -85 24 -85 4 0 8 9 8 19 0 15 10 21 40 26 40 7
52 21 27 31 -8 3 -27 0 -42 -6 -24 -9 -32 -8 -41 4 -6 9 -13 13 -16 11z"/>
<path d="M2276 873 c-13 -14 -4 -24 34 -39 33 -13 38 -19 29 -30 -9 -11 -8
-14 2 -14 8 1 22 17 31 37 18 38 14 61 -5 31 -10 -15 -14 -15 -48 2 -20 11
-39 16 -43 13z"/>
<path d="M213 794 c-3 -9 2 -31 11 -49 l18 -33 44 25 c24 14 44 28 44 32 0 16
-13 19 -31 8 -16 -10 -21 -8 -34 11 -19 26 -43 29 -52 6z m45 -33 c3 -8 -1
-12 -9 -9 -7 2 -15 10 -17 17 -3 8 1 12 9 9 7 -2 15 -10 17 -17z"/>
<path d="M2185 689 c-4 -6 -5 -11 -4 -13 2 -1 21 -15 43 -30 29 -22 40 -26 46
-16 6 9 -4 22 -31 42 -44 32 -45 32 -54 17z"/>
<path d="M362 603 c-28 -75 -20 -83 62 -69 51 10 57 13 43 24 -9 8 -20 11 -25
8 -11 -7 -45 41 -47 66 -3 36 -13 27 -33 -29z m33 -46 c-20 -11 -27 -5 -19 17
5 13 9 14 21 5 12 -11 12 -14 -2 -22z"/>
<path d="M2074 546 c-50 -50 -43 -106 14 -106 33 0 82 52 82 87 0 61 -45 70
-96 19z m71 -35 c-3 -12 -18 -29 -31 -38 -23 -14 -27 -15 -41 -1 -20 21 -9 54
25 72 34 18 58 1 47 -33z"/>
<path d="M523 440 c-26 -62 -14 -79 36 -49 18 11 35 19 37 17 1 -2 -1 -20 -5
-40 -13 -56 5 -63 58 -22 35 27 40 35 27 40 -11 4 -27 -2 -43 -17 l-25 -24 6
23 c3 12 8 30 11 41 8 26 -21 34 -51 15 -31 -21 -41 -12 -21 20 13 19 14 26 3
35 -9 8 -17 -1 -33 -39z"/>
<path d="M1926 411 c-3 -5 4 -21 15 -35 l21 -27 -28 6 c-63 13 -70 14 -83 6
-11 -7 -7 -17 19 -49 20 -25 38 -38 47 -35 11 4 10 10 -8 29 -29 31 -21 37 29
26 61 -14 70 -2 36 47 -30 42 -39 48 -48 32z"/>
<path d="M781 262 c-12 -22 3 -42 30 -42 22 0 33 28 18 46 -16 19 -36 17 -48
-4z"/>
<path d="M1730 266 c-18 -22 -5 -48 22 -44 17 2 23 10 23 28 0 29 -26 38 -45
16z"/>
<path d="M957 234 c-13 -14 5 -23 33 -17 17 3 30 1 30 -5 0 -15 -24 -31 -59
-38 -49 -10 -45 -20 15 -36 36 -10 54 -12 51 -5 -2 6 -14 14 -28 18 l-24 6 27
8 c42 11 54 31 33 55 -17 19 -64 27 -78 14z"/>
<path d="M1535 224 c-11 -12 -13 -20 -5 -29 6 -7 7 -20 4 -30 -14 -36 39 -46
80 -14 25 19 26 23 12 38 -9 10 -16 25 -16 34 0 22 -53 23 -75 1z m50 -14 c-3
-5 -13 -10 -21 -10 -8 0 -14 5 -14 10 0 6 9 10 21 10 11 0 17 -4 14 -10z m21
-31 c7 -12 -12 -29 -33 -29 -28 0 -11 36 19 39 4 1 10 -4 14 -10z"/>
<path d="M1353 200 c-27 -11 -36 -40 -24 -74 9 -21 17 -26 44 -26 18 0 38 5
45 12 20 20 14 65 -10 82 -25 18 -25 18 -55 6z m48 -37 c5 -13 3 -28 -6 -39
-11 -15 -15 -16 -29 -5 -19 16 -21 42 -4 59 16 16 29 11 39 -15z"/>
<path d="M1141 186 c-19 -23 -9 -69 17 -82 33 -16 62 -6 73 25 16 41 -3 71
-45 71 -18 0 -39 -6 -45 -14z m69 -36 c0 -22 -25 -44 -40 -35 -14 9 -13 62 3
68 17 6 37 -12 37 -33z"/>
</g>
</svg>
