<?xml version="1.0" standalone="no"?>
<!DOCTYPE svg PUBLIC "-//W3C//DTD SVG 20010904//EN"
 "http://www.w3.org/TR/2001/REC-SVG-20010904/DTD/svg10.dtd">
<svg version="1.0" xmlns="http://www.w3.org/2000/svg"
 width="128.000000pt" height="128.000000pt" viewBox="0 0 128.000000 128.000000"
 preserveAspectRatio="xMidYMid meet">
<metadata>
Created by potrace 1.10, written by Peter Selinger 2001-2011
</metadata>
<g transform="translate(0.000000,128.000000) scale(0.100000,-0.100000)"
fill="#000000" stroke="none">
<path d="M534 1271 c-236 -38 -439 -220 -510 -456 -25 -83 -25 -267 0 -350 63
-211 230 -378 441 -441 83 -25 267 -25 350 0 211 63 378 230 441 441 25 83 25
267 0 350 -62 208 -232 379 -435 439 -65 19 -217 28 -287 17z m298 -36 c202
-65 361 -236 414 -445 20 -79 22 -215 5 -290 -53 -225 -233 -408 -461 -467
-83 -21 -217 -21 -300 0 -227 59 -399 231 -456 457 -91 354 164 728 523 768
86 9 206 -1 275 -23z"/>
<path d="M623 1218 c2 -7 10 -13 17 -13 7 0 15 6 18 13 2 7 -5 12 -18 12 -13
0 -20 -5 -17 -12z"/>
<path d="M478 1209 c-22 -12 -23 -35 -2 -43 25 -10 42 -7 58 10 14 13 14 17 2
30 -17 16 -34 17 -58 3z m44 -17 c-7 -2 -9 -8 -6 -14 4 -6 -1 -8 -11 -6 -25 4
-30 25 -8 30 21 5 43 -4 25 -10z"/>
<path d="M754 1199 c-4 -7 2 -20 16 -31 24 -20 50 -24 50 -8 0 6 -9 10 -19 10
-11 0 -23 5 -26 10 -10 16 24 23 42 9 14 -12 16 -12 11 1 -6 19 -63 26 -74 9z"/>
<path d="M616 1188 c7 -11 64 -10 64 1 0 5 -15 9 -34 8 -19 0 -33 -5 -30 -9z"/>
<path d="M384 1164 c5 -13 1 -15 -19 -10 -14 4 -25 2 -25 -3 0 -13 39 -58 40
-45 0 5 -5 15 -12 22 -10 10 -5 11 20 6 34 -7 39 1 18 29 -17 21 -30 22 -22 1z"/>
<path d="M874 1155 c-8 -21 14 -45 42 -45 31 0 39 17 18 41 -20 23 -52 25 -60
4z m40 -1 c20 -8 21 -34 2 -34 -17 0 -38 24 -29 33 8 8 8 8 27 1z"/>
<path d="M534 1135 c-257 -56 -438 -317 -395 -572 47 -273 307 -467 573 -425
206 31 374 188 423 394 19 80 19 136 0 216 -46 193 -202 347 -394 388 -80 17
-127 17 -207 -1z m225 -20 c130 -34 254 -129 313 -241 77 -143 77 -325 0 -468
-34 -65 -133 -164 -198 -198 -143 -77 -325 -77 -468 0 -65 34 -164 133 -198
198 -59 109 -73 245 -40 365 46 166 179 297 349 344 65 18 176 18 242 0z"/>
<path d="M610 915 c0 -52 2 -95 6 -95 3 0 22 11 42 25 20 14 39 25 42 25 3 0
4 -94 2 -209 -3 -201 -2 -209 17 -214 11 -2 21 -3 23 -2 2 2 1 112 -2 245 l-5
241 -62 40 -63 39 0 -95z m80 13 c36 -26 38 -43 8 -44 -13 0 -31 -4 -40 -8
-16 -7 -18 -2 -18 33 0 47 9 50 50 19z"/>
<path d="M531 801 c-40 -27 -43 -32 -45 -75 -1 -25 1 -46 5 -46 16 0 31 32 25
53 -5 20 0 27 29 42 18 11 36 27 38 37 7 24 -1 23 -52 -11z"/>
<path d="M605 781 l-60 -38 3 -173 c3 -206 21 -221 23 -20 0 74 0 140 -1 145
-6 26 3 42 35 63 19 12 37 22 40 22 3 0 5 -85 5 -190 0 -115 4 -190 10 -190 5
0 10 84 12 210 2 116 1 210 -2 210 -3 0 -32 -18 -65 -39z"/>
<path d="M770 586 l0 -184 -62 -6 c-117 -13 -133 -13 -161 -1 l-29 12 1 127
c1 69 -2 126 -6 126 -5 0 -19 -7 -31 -16 -21 -14 -22 -23 -22 -130 0 -69 4
-114 10 -114 6 0 10 10 10 23 0 22 1 22 14 -3 16 -32 4 -47 -26 -32 -13 6 -49
12 -80 15 -55 3 -58 3 -58 -20 l0 -23 310 0 310 0 0 24 c0 27 -2 27 -125 11
l-40 -6 5 168 5 168 3 -162 c1 -98 6 -163 12 -163 6 0 10 66 10 169 l0 169
-25 16 -25 16 0 -184z m-283 -88 c-2 -18 -4 -6 -4 27 0 33 2 48 4 33 2 -15 2
-42 0 -60z"/>
<path d="M260 1092 c0 -5 9 -17 20 -27 22 -20 26 -14 10 16 -11 19 -30 26 -30
11z"/>
<path d="M990 1085 c-7 -9 -10 -19 -6 -22 4 -4 11 -1 16 7 7 11 10 8 10 -12 0
-33 10 -35 35 -8 19 21 7 28 -13 8 -9 -9 -12 -6 -12 15 0 30 -11 35 -30 12z"/>
<path d="M187 1022 c-16 -18 -16 -20 4 -38 20 -18 21 -18 35 1 30 40 -6 74
-39 37z m33 -17 c0 -8 -4 -15 -9 -15 -13 0 -22 16 -14 24 11 11 23 6 23 -9z"/>
<path d="M1098 994 c-4 -3 -4 -13 0 -22 5 -15 4 -15 -11 -3 -19 15 -23 1 -5
-17 18 -18 28 -15 28 9 0 12 4 18 11 13 7 -4 10 -1 7 6 -5 16 -21 23 -30 14z"/>
<path d="M137 923 c-17 -3 -26 -9 -23 -16 3 -7 9 -20 12 -29 4 -10 11 -18 16
-18 6 0 8 7 4 15 -3 9 3 20 14 27 20 13 27 29 13 27 -5 -1 -21 -4 -36 -6z"/>
<path d="M1160 901 c0 -8 -8 -19 -17 -26 -14 -11 -12 -12 15 -11 36 1 38 4 17
32 -10 13 -14 15 -15 5z"/>
<path d="M74 817 c-8 -21 1 -33 26 -40 27 -7 25 7 -2 21 -22 11 -21 11 5 6 16
-4 27 -2 27 5 0 6 -4 11 -9 11 -5 0 -16 3 -25 6 -9 4 -18 0 -22 -9z"/>
<path d="M1178 793 c-19 -5 -25 -23 -8 -23 5 0 7 -8 3 -17 -5 -14 -3 -15 7 -6
7 6 19 9 26 6 8 -3 14 -1 14 5 0 17 -12 42 -19 41 -3 -1 -14 -3 -23 -6z"/>
<path d="M51 675 c-1 -21 2 -26 8 -16 5 8 16 11 25 8 9 -4 16 -2 16 3 0 6 -9
10 -19 10 -11 0 -22 6 -24 13 -3 6 -6 -1 -6 -18z"/>
<path d="M1178 668 c-9 -23 3 -38 28 -38 13 0 24 4 24 9 0 5 -10 7 -21 4 -16
-4 -20 -2 -17 8 3 8 12 13 22 11 9 -2 16 2 16 8 0 14 -47 13 -52 -2z"/>
<path d="M1170 541 c-12 -24 -13 -41 -1 -41 5 0 11 9 13 20 4 29 23 24 21 -6
-1 -13 0 -24 2 -24 10 0 24 40 19 54 -9 22 -41 20 -54 -3z"/>
<path d="M65 502 c3 -8 5 -18 5 -24 0 -5 7 -2 16 6 8 9 20 16 25 16 5 0 9 4 9
9 0 4 -14 8 -30 7 -21 -1 -29 -5 -25 -14z"/>
<path d="M1130 430 c0 -5 7 -10 15 -10 7 0 18 -7 23 -15 7 -13 11 -11 21 11
10 23 10 25 -1 16 -9 -7 -19 -8 -28 -2 -20 13 -30 12 -30 0z"/>
<path d="M106 401 c-9 -13 4 -41 18 -41 7 0 21 7 32 15 19 14 19 14 -3 15 -12
0 -23 -3 -26 -7 -2 -5 -2 -3 -1 4 4 15 -13 27 -20 14z"/>
<path d="M1090 342 c0 -11 41 -34 48 -28 3 4 -3 13 -14 21 -21 16 -34 19 -34
7z"/>
<path d="M181 306 c-14 -36 -3 -49 34 -40 23 6 25 8 11 16 -10 5 -21 19 -26
31 -8 21 -8 21 -19 -7z"/>
<path d="M1036 274 c-20 -20 -20 -43 0 -51 21 -8 59 30 51 51 -8 20 -31 20
-51 0z m34 -18 c0 -14 -24 -29 -33 -19 -3 3 -3 11 0 19 7 18 33 18 33 0z"/>
<path d="M260 221 c-15 -29 -13 -34 16 -27 17 5 23 3 19 -4 -4 -6 -4 -18 -1
-27 6 -14 9 -14 26 2 23 21 27 44 5 25 -13 -10 -15 -9 -15 9 0 18 -4 21 -20
16 -15 -5 -18 -3 -14 9 9 23 -3 20 -16 -3z"/>
<path d="M963 196 c4 -10 -2 -16 -20 -18 l-25 -3 21 -25 c20 -23 22 -23 16 -4
-5 18 -2 21 20 16 28 -5 31 4 11 31 -16 21 -30 23 -23 3z"/>
<path d="M390 126 c0 -9 7 -16 16 -16 9 0 14 5 12 12 -6 18 -28 21 -28 4z"/>
<path d="M860 125 c0 -8 7 -15 15 -15 8 0 15 7 15 15 0 8 -7 15 -15 15 -8 0
-15 -7 -15 -15z"/>
<path d="M475 110 c3 -5 13 -6 22 -3 11 4 14 3 9 -5 -4 -7 -16 -12 -27 -12
-10 0 -19 -4 -19 -9 0 -10 50 -25 58 -16 3 3 -1 5 -8 5 -10 0 -8 5 4 19 15 17
15 19 1 25 -25 9 -47 7 -40 -4z"/>
<path d="M769 118 c-13 -39 10 -69 36 -48 18 15 7 50 -16 50 -11 0 -19 -1 -20
-2z"/>
<path d="M563 84 c-3 -8 2 -23 11 -32 15 -15 17 -15 32 0 21 21 11 48 -16 48
-11 0 -23 -7 -27 -16z m37 -9 c0 -8 -4 -15 -10 -15 -5 0 -10 7 -10 15 0 8 5
15 10 15 6 0 10 -7 10 -15z"/>
<path d="M663 84 c-3 -8 2 -23 11 -32 15 -15 17 -15 32 0 9 9 14 24 11 32 -8
21 -46 21 -54 0z m37 -9 c0 -8 -4 -15 -10 -15 -5 0 -10 7 -10 15 0 8 5 15 10
15 6 0 10 -7 10 -15z"/>
</g>
</svg>
